# xmcd
#
# Track frame offsets:
# 150
# 11687
# 21192
# 32309
# 52046
# 59539
# 75228
# 89281
# 99966
# 112451
# 119432
# 131845
#
# Disc length: 1991 seconds
#
#
# Revision: 0
# Processed by: cddbd v1.5.2PL0 Copyright (c) Steve Scherf et al.
# Submitted via: FreeRIP 2.951 
#
DISCID=9907c50c
DTITLE=Hazel Holler - Hazel Holler
DYEAR=2004
DGENRE=Bluegrass
TTITLE0=Hazel Holler - Crawdad Song
TTITLE1=Hazel Holler - Almost Blue
TTITLE2=Hazel Holler - Hazel Holler
TTITLE3=Hazel Holler - I Wonder Where You Are Tonight
TTITLE4=Hazel Holler - Ragtime Annie
TTITLE5=Hazel Holler - Hello Stranger
TTITLE6=Hazel Holler - Shady Grove
TTITLE7=Hazel Holler - Playing the Fool
TTITLE8=Hazel Holler - Blue Kentucky Girl
TTITLE9=Hazel Holler - How Mountain Girls Can Love
TTITLE10=Hazel Holler - Where I Wanna Be
TTITLE11=Hazel Holler - Oh Susannah - Lil Liza Jane
EXTD=
EXTT0=
EXTT1=
EXTT2=
EXTT3=
EXTT4=
EXTT5=
EXTT6=
EXTT7=
EXTT8=
EXTT9=
EXTT10=
EXTT11=
PLAYORDER=
